<svg xmlns="http://www.w3.org/2000/svg" viewBox="0 0 700 400" font-family="Arial, sans-serif">
<rect width="700" height="400" fill="white"/>
<text x="350.0" y="22" text-anchor="middle" font-size="14" font-weight="bold">Wall-Clock Time: RastQC vs FastQC (Real Genomes)</text>
<line x1="80" y1="340.0" x2="580" y2="340.0" stroke="#e0e0e0" stroke-width="0.5"/>
<text x="72" y="344.0" text-anchor="end" font-size="11" fill="#555">0s</text>
<line x1="80" y1="290.0" x2="580" y2="290.0" stroke="#e0e0e0" stroke-width="0.5"/>
<text x="72" y="294.0" text-anchor="end" font-size="11" fill="#555">5s</text>
<line x1="80" y1="240.0" x2="580" y2="240.0" stroke="#e0e0e0" stroke-width="0.5"/>
<text x="72" y="244.0" text-anchor="end" font-size="11" fill="#555">10s</text>
<line x1="80" y1="190.0" x2="580" y2="190.0" stroke="#e0e0e0" stroke-width="0.5"/>
<text x="72" y="194.0" text-anchor="end" font-size="11" fill="#555">15s</text>
<line x1="80" y1="140.0" x2="580" y2="140.0" stroke="#e0e0e0" stroke-width="0.5"/>
<text x="72" y="144.0" text-anchor="end" font-size="11" fill="#555">20s</text>
<line x1="80" y1="90.0" x2="580" y2="90.0" stroke="#e0e0e0" stroke-width="0.5"/>
<text x="72" y="94.0" text-anchor="end" font-size="11" fill="#555">25s</text>
<line x1="80" y1="40.0" x2="580" y2="40.0" stroke="#e0e0e0" stroke-width="0.5"/>
<text x="72" y="44.0" text-anchor="end" font-size="11" fill="#555">30s</text>
<rect x="93.0" y="318.4" width="35.0" height="21.6" fill="#2980b9" rx="2"/>
<rect x="132.0" y="292.4" width="35.0" height="47.599999999999994" fill="#e74c3c" rx="2"/>
<text x="110.5" y="314.4" text-anchor="middle" font-size="9" fill="#2980b9">2.2s</text>
<text x="149.5" y="288.4" text-anchor="middle" font-size="9" fill="#e74c3c">4.8s</text>
<text x="130.0" y="358" text-anchor="middle" font-size="11" fill="#333">Fly</text>
<rect x="193.0" y="278.1" width="35.0" height="61.900000000000006" fill="#2980b9" rx="2"/>
<rect x="232.0" y="274.4" width="35.0" height="65.6" fill="#e74c3c" rx="2"/>
<text x="210.5" y="274.1" text-anchor="middle" font-size="9" fill="#2980b9">6.2s</text>
<text x="249.5" y="270.4" text-anchor="middle" font-size="9" fill="#e74c3c">6.6s</text>
<text x="230.0" y="358" text-anchor="middle" font-size="11" fill="#333">Yeast</text>
<rect x="293.0" y="55.5" width="35.0" height="284.5" fill="#2980b9" rx="2"/>
<rect x="332.0" y="144.1" width="35.0" height="195.9" fill="#e74c3c" rx="2"/>
<text x="310.5" y="51.5" text-anchor="middle" font-size="9" fill="#2980b9">28.4s</text>
<text x="349.5" y="140.1" text-anchor="middle" font-size="9" fill="#e74c3c">19.6s</text>
<text x="330.0" y="358" text-anchor="middle" font-size="11" fill="#333">E. coli</text>
<rect x="393.0" y="233.9" width="35.0" height="106.1" fill="#2980b9" rx="2"/>
<rect x="432.0" y="234.3" width="35.0" height="105.7" fill="#e74c3c" rx="2"/>
<text x="410.5" y="229.9" text-anchor="middle" font-size="9" fill="#2980b9">10.6s</text>
<text x="449.5" y="230.3" text-anchor="middle" font-size="9" fill="#e74c3c">10.6s</text>
<text x="430.0" y="358" text-anchor="middle" font-size="11" fill="#333">Mouse</text>
<rect x="493.0" y="176.70000000000005" width="35.0" height="163.29999999999995" fill="#2980b9" rx="2"/>
<rect x="532.0" y="174.0" width="35.0" height="166.0" fill="#e74c3c" rx="2"/>
<text x="510.5" y="172.70000000000005" text-anchor="middle" font-size="9" fill="#2980b9">16.3s</text>
<text x="549.5" y="170.0" text-anchor="middle" font-size="9" fill="#e74c3c">16.6s</text>
<text x="530.0" y="358" text-anchor="middle" font-size="11" fill="#333">Human</text>
<line x1="80" y1="40" x2="80" y2="340" stroke="#333" stroke-width="1.5"/>
<line x1="80" y1="340" x2="580" y2="340" stroke="#333" stroke-width="1.5"/>
<text x="18" y="190.0" text-anchor="middle" font-size="12" fill="#333" transform="rotate(-90 18 190.0)">Time (seconds)</text>
<rect x="590" y="60" width="14" height="14" fill="#2980b9" rx="2"/>
<text x="610" y="72" font-size="11" fill="#333">RastQC</text>
<rect x="590" y="82" width="14" height="14" fill="#e74c3c" rx="2"/>
<text x="610" y="94" font-size="11" fill="#333">FastQC</text>
</svg>