<svg xmlns="http://www.w3.org/2000/svg" viewBox="0 0 700 400" font-family="Arial, sans-serif">
<rect width="700" height="400" fill="white"/>
<text x="350.0" y="22" text-anchor="middle" font-size="14" font-weight="bold">Peak Memory (RSS): RastQC vs FastQC</text>
<line x1="80" y1="340.0" x2="580" y2="340.0" stroke="#e0e0e0" stroke-width="0.5"/>
<text x="72" y="344.0" text-anchor="end" font-size="11" fill="#555">0</text>
<line x1="80" y1="297.14285714285717" x2="580" y2="297.14285714285717" stroke="#e0e0e0" stroke-width="0.5"/>
<text x="72" y="301.14285714285717" text-anchor="end" font-size="11" fill="#555">100</text>
<line x1="80" y1="254.28571428571428" x2="580" y2="254.28571428571428" stroke="#e0e0e0" stroke-width="0.5"/>
<text x="72" y="258.2857142857143" text-anchor="end" font-size="11" fill="#555">200</text>
<line x1="80" y1="211.42857142857144" x2="580" y2="211.42857142857144" stroke="#e0e0e0" stroke-width="0.5"/>
<text x="72" y="215.42857142857144" text-anchor="end" font-size="11" fill="#555">300</text>
<line x1="80" y1="168.57142857142858" x2="580" y2="168.57142857142858" stroke="#e0e0e0" stroke-width="0.5"/>
<text x="72" y="172.57142857142858" text-anchor="end" font-size="11" fill="#555">400</text>
<line x1="80" y1="125.71428571428572" x2="580" y2="125.71428571428572" stroke="#e0e0e0" stroke-width="0.5"/>
<text x="72" y="129.71428571428572" text-anchor="end" font-size="11" fill="#555">500</text>
<line x1="80" y1="82.85714285714289" x2="580" y2="82.85714285714289" stroke="#e0e0e0" stroke-width="0.5"/>
<text x="72" y="86.85714285714289" text-anchor="end" font-size="11" fill="#555">600</text>
<line x1="80" y1="40.0" x2="580" y2="40.0" stroke="#e0e0e0" stroke-width="0.5"/>
<text x="72" y="44.0" text-anchor="end" font-size="11" fill="#555">700</text>
<rect x="93.0" y="314.8515625" width="35.0" height="25.1484375" fill="#2980b9" rx="2"/>
<rect x="132.0" y="103.91238839285714" width="35.0" height="236.08761160714286" fill="#e74c3c" rx="2"/>
<text x="110.5" y="310.8515625" text-anchor="middle" font-size="9" fill="#2980b9">59</text>
<text x="149.5" y="99.91238839285714" text-anchor="middle" font-size="9" fill="#e74c3c">551</text>
<text x="130.0" y="358" text-anchor="middle" font-size="11" fill="#333">Fly</text>
<text x="130.0" y="372" text-anchor="middle" font-size="9" fill="#888">9x less</text>
<rect x="193.0" y="309.01729910714283" width="35.0" height="30.982700892857142" fill="#2980b9" rx="2"/>
<rect x="232.0" y="97.12890625" width="35.0" height="242.87109375" fill="#e74c3c" rx="2"/>
<text x="210.5" y="305.01729910714283" text-anchor="middle" font-size="9" fill="#2980b9">72</text>
<text x="249.5" y="93.12890625" text-anchor="middle" font-size="9" fill="#e74c3c">567</text>
<text x="230.0" y="358" text-anchor="middle" font-size="11" fill="#333">Yeast</text>
<text x="230.0" y="372" text-anchor="middle" font-size="9" fill="#888">8x less</text>
<rect x="293.0" y="286.33816964285717" width="35.0" height="53.661830357142854" fill="#2980b9" rx="2"/>
<rect x="332.0" y="98.64899553571428" width="35.0" height="241.35100446428572" fill="#e74c3c" rx="2"/>
<text x="310.5" y="282.33816964285717" text-anchor="middle" font-size="9" fill="#2980b9">125</text>
<text x="349.5" y="94.64899553571428" text-anchor="middle" font-size="9" fill="#e74c3c">563</text>
<text x="330.0" y="358" text-anchor="middle" font-size="11" fill="#333">E. coli</text>
<text x="330.0" y="372" text-anchor="middle" font-size="9" fill="#888">4x less</text>
<rect x="393.0" y="301.1506696428571" width="35.0" height="38.84933035714286" fill="#2980b9" rx="2"/>
<rect x="432.0" y="90.31026785714286" width="35.0" height="249.68973214285714" fill="#e74c3c" rx="2"/>
<text x="410.5" y="297.1506696428571" text-anchor="middle" font-size="9" fill="#2980b9">91</text>
<text x="449.5" y="86.31026785714286" text-anchor="middle" font-size="9" fill="#e74c3c">583</text>
<text x="430.0" y="358" text-anchor="middle" font-size="11" fill="#333">Mouse</text>
<text x="430.0" y="372" text-anchor="middle" font-size="9" fill="#888">6x less</text>
<rect x="493.0" y="289.796875" width="35.0" height="50.20312500000001" fill="#2980b9" rx="2"/>
<rect x="532.0" y="66.36551339285717" width="35.0" height="273.63448660714283" fill="#e74c3c" rx="2"/>
<text x="510.5" y="285.796875" text-anchor="middle" font-size="9" fill="#2980b9">117</text>
<text x="549.5" y="62.36551339285717" text-anchor="middle" font-size="9" fill="#e74c3c">638</text>
<text x="530.0" y="358" text-anchor="middle" font-size="11" fill="#333">Human</text>
<text x="530.0" y="372" text-anchor="middle" font-size="9" fill="#888">5x less</text>
<line x1="80" y1="40" x2="80" y2="340" stroke="#333" stroke-width="1.5"/>
<line x1="80" y1="340" x2="580" y2="340" stroke="#333" stroke-width="1.5"/>
<text x="18" y="190.0" text-anchor="middle" font-size="12" fill="#333" transform="rotate(-90 18 190.0)">Memory (MB)</text>
<rect x="590" y="60" width="14" height="14" fill="#2980b9" rx="2"/>
<text x="610" y="72" font-size="11" fill="#333">RastQC</text>
<rect x="590" y="82" width="14" height="14" fill="#e74c3c" rx="2"/>
<text x="610" y="94" font-size="11" fill="#333">FastQC</text>
</svg>