<svg xmlns="http://www.w3.org/2000/svg" viewBox="0 0 600 380" font-family="Arial, sans-serif">
<rect width="600" height="380" fill="white"/>
<text x="300.0" y="22" text-anchor="middle" font-size="14" font-weight="bold">Synthetic Benchmarks: RastQC vs FastQC</text>
<line x1="70" y1="310.0" x2="480" y2="310.0" stroke="#e0e0e0" stroke-width="0.5"/>
<text x="62" y="314.0" text-anchor="end" font-size="11" fill="#555">0s</text>
<line x1="70" y1="256.0" x2="480" y2="256.0" stroke="#e0e0e0" stroke-width="0.5"/>
<text x="62" y="260.0" text-anchor="end" font-size="11" fill="#555">2s</text>
<line x1="70" y1="202.0" x2="480" y2="202.0" stroke="#e0e0e0" stroke-width="0.5"/>
<text x="62" y="206.0" text-anchor="end" font-size="11" fill="#555">4s</text>
<line x1="70" y1="148.0" x2="480" y2="148.0" stroke="#e0e0e0" stroke-width="0.5"/>
<text x="62" y="152.0" text-anchor="end" font-size="11" fill="#555">6s</text>
<line x1="70" y1="94.0" x2="480" y2="94.0" stroke="#e0e0e0" stroke-width="0.5"/>
<text x="62" y="98.0" text-anchor="end" font-size="11" fill="#555">8s</text>
<line x1="70" y1="40.0" x2="480" y2="40.0" stroke="#e0e0e0" stroke-width="0.5"/>
<text x="62" y="44.0" text-anchor="end" font-size="11" fill="#555">10s</text>
<rect x="83.375" y="310.0" width="35.875" height="2" fill="#2980b9" rx="2"/>
<rect x="123.25" y="241.15" width="35.875" height="68.85" fill="#e74c3c" rx="2"/>
<text x="101.3125" y="306.0" text-anchor="middle" font-size="8" fill="#2980b9">0ms</text>
<text x="141.1875" y="237.15" text-anchor="middle" font-size="8" fill="#e74c3c">2.5s</text>
<text x="121.25" y="328" text-anchor="middle" font-size="11" fill="#333">Startup</text>
<rect x="185.875" y="285.7" width="35.875" height="24.3" fill="#2980b9" rx="2"/>
<rect x="225.75" y="214.15" width="35.875" height="95.85" fill="#e74c3c" rx="2"/>
<text x="203.8125" y="281.7" text-anchor="middle" font-size="8" fill="#2980b9">0.9s</text>
<text x="243.6875" y="210.15" text-anchor="middle" font-size="8" fill="#e74c3c">3.5s</text>
<text x="223.75" y="328" text-anchor="middle" font-size="11" fill="#333">100K</text>
<rect x="288.375" y="89.94999999999999" width="35.875" height="220.05" fill="#2980b9" rx="2"/>
<rect x="328.25" y="105.88" width="35.875" height="204.12" fill="#e74c3c" rx="2"/>
<text x="306.3125" y="85.94999999999999" text-anchor="middle" font-size="8" fill="#2980b9">8.2s</text>
<text x="346.1875" y="101.88" text-anchor="middle" font-size="8" fill="#e74c3c">7.6s</text>
<text x="326.25" y="328" text-anchor="middle" font-size="11" fill="#333">1M</text>
<rect x="390.875" y="54.579999999999984" width="35.875" height="255.42000000000002" fill="#2980b9" rx="2"/>
<rect x="430.75" y="78.34" width="35.875" height="231.66" fill="#e74c3c" rx="2"/>
<text x="408.8125" y="50.579999999999984" text-anchor="middle" font-size="8" fill="#2980b9">9.5s</text>
<text x="448.6875" y="74.34" text-anchor="middle" font-size="8" fill="#e74c3c">8.6s</text>
<text x="428.75" y="328" text-anchor="middle" font-size="11" fill="#333">1M gz</text>
<line x1="70" y1="40" x2="70" y2="310" stroke="#333" stroke-width="1.5"/>
<line x1="70" y1="310" x2="480" y2="310" stroke="#333" stroke-width="1.5"/>
<text x="18" y="175.0" text-anchor="middle" font-size="12" fill="#333" transform="rotate(-90 18 175.0)">Time (seconds)</text>
<rect x="490" y="60" width="14" height="14" fill="#2980b9" rx="2"/>
<text x="510" y="72" font-size="11" fill="#333">RastQC</text>
<rect x="490" y="82" width="14" height="14" fill="#e74c3c" rx="2"/>
<text x="510" y="94" font-size="11" fill="#333">FastQC</text>
</svg>